# xmcd
#
# Track frame offsets:
#	150
#	24842
#	36790
#	55157
#	78007
#	99087
#	114965
#	134755
#	157847
#	179195
#	208742
#
# Disc length: 2967 seconds
# Revision: 0
# Processed by: cddbd v1.5.2PL0 Copyright (c) Steve Scherf et al.
# Submitted via: dBpowerAMP V12.0
#
DISCID=840b950b
DTITLE=Gary Morris - Live At The Tretyakov Gallery
DYEAR=1999
DGENRE=Country
TTITLE0=Scherzo
TTITLE1=Wayfaring Stranger
TTITLE2=I Do
TTITLE3=Finishing Touches
TTITLE4=Live
TTITLE5=I Can't
TTITLE6=Shine
TTITLE7=My Son
TTITLE8=Bring Him Home
TTITLE9=Andante Cantabile
TTITLE10=Second Chance
EXTD=
EXTT0=
EXTT1=
EXTT2=
EXTT3=
EXTT4=
EXTT5=
EXTT6=
EXTT7=
EXTT8=
EXTT9=
EXTT10=
PLAYORDER=
